<?xml version="1.0" encoding="UTF-8"?>
<svg xmlns="http://www.w3.org/2000/svg" width="512" height="512" viewBox="0 0 512 512">
  <rect width="512" height="512" rx="96" fill="#004225"/>
  <g fill="#ffffff">
    <path d="M256 116c-52.5 0-95 42.5-95 95v33c0 52.5 42.5 95 95 95s95-42.5 95-95v-33c0-52.5-42.5-95-95-95zm65 128c0 35.9-29.1 65-65 65s-65-29.1-65-65v-33c0-35.9 29.1-65 65-65s65 29.1 65 65v33z"/>
    <path d="M106 410c12-60 64-105 123-105h54c59 0 111 45 123 105 1.6 8.1-3.7 15.9-11.8 17.5-8.1 1.6-15.9-3.7-17.5-11.8-9.4-47.5-50.6-80.7-93.7-80.7h-54c-43.1 0-84.3 33.2-93.7 80.7-1.6 8.1-9.4 13.4-17.5 11.8-8.1-1.6-13.4-9.4-11.8-17.5z"/>
    <text x="256" y="475" text-anchor="middle" font-family="Arial, sans-serif" font-size="54" font-weight="700">KSU</text>
  </g>
</svg>